<svg xmlns="http://www.w3.org/2000/svg" xmlns:xlink="http://www.w3.org/1999/xlink" width="146" zoomAndPan="magnify" viewBox="0 0 109.5 30.000001" height="40" preserveAspectRatio="xMidYMid meet" version="1.0"><defs><g/></defs><g fill="#ffffff" fill-opacity="1"><g transform="translate(4.110292, 22.262517)"><g><path d="M 10.78125 -0.25 L 10.921875 -0.25 C 11.316406 -0.25 11.515625 -0.4375 11.515625 -0.8125 C 11.515625 -0.945312 11.492188 -1.085938 11.453125 -1.234375 L 9.171875 -7.375 L 4.75 -7.375 L 2.546875 -1.34375 C 2.492188 -1.207031 2.46875 -1.078125 2.46875 -0.953125 C 2.46875 -0.734375 2.523438 -0.5625 2.640625 -0.4375 C 2.765625 -0.3125 2.894531 -0.25 3.03125 -0.25 L 3.15625 -0.25 L 3.15625 0 L 0.359375 0 L 0.359375 -0.25 L 0.484375 -0.25 C 0.703125 -0.25 0.914062 -0.378906 1.125 -0.640625 C 1.332031 -0.898438 1.503906 -1.207031 1.640625 -1.5625 L 7.421875 -16.984375 L 13.09375 -1.71875 C 13.207031 -1.382812 13.367188 -1.054688 13.578125 -0.734375 C 13.785156 -0.410156 14.0625 -0.25 14.40625 -0.25 L 14.53125 -0.25 L 14.53125 0 L 10.78125 0 Z M 5 -8.234375 L 8.890625 -8.234375 L 6.953125 -13.515625 Z M 5 -8.234375 "/></g></g></g><g fill="#ffffff" fill-opacity="1"><g transform="translate(19.018769, 22.262517)"><g><path d="M 1.234375 -16.671875 L 4.84375 -16.671875 L 4.84375 -16.421875 L 4.71875 -16.421875 C 4.601562 -16.421875 4.492188 -16.375 4.390625 -16.28125 C 4.296875 -16.1875 4.210938 -16.078125 4.140625 -15.953125 C 4.078125 -15.828125 4.023438 -15.679688 3.984375 -15.515625 C 3.941406 -15.359375 3.921875 -15.222656 3.921875 -15.109375 L 3.921875 -1.640625 C 3.921875 -1.503906 3.9375 -1.351562 3.96875 -1.1875 C 4 -1.03125 4.050781 -0.882812 4.125 -0.75 C 4.207031 -0.625 4.289062 -0.507812 4.375 -0.40625 C 4.46875 -0.300781 4.582031 -0.25 4.71875 -0.25 L 4.84375 -0.25 L 4.84375 0 L 1.234375 0 L 1.234375 -0.25 L 1.359375 -0.25 C 1.492188 -0.25 1.613281 -0.296875 1.71875 -0.390625 C 1.820312 -0.484375 1.910156 -0.597656 1.984375 -0.734375 C 2.054688 -0.878906 2.109375 -1.03125 2.140625 -1.1875 C 2.179688 -1.351562 2.203125 -1.503906 2.203125 -1.640625 L 2.203125 -15.109375 C 2.203125 -15.222656 2.179688 -15.351562 2.140625 -15.5 C 2.109375 -15.65625 2.054688 -15.800781 1.984375 -15.9375 C 1.910156 -16.070312 1.820312 -16.1875 1.71875 -16.28125 C 1.613281 -16.375 1.492188 -16.421875 1.359375 -16.421875 L 1.234375 -16.421875 Z M 1.234375 -16.671875 "/></g></g></g><g fill="#ffffff" fill-opacity="1"><g transform="translate(25.159042, 22.262517)"><g><path d="M 3.484375 -9.75 L 3.484375 -1.640625 C 3.484375 -1.503906 3.5 -1.351562 3.53125 -1.1875 C 3.570312 -1.03125 3.628906 -0.882812 3.703125 -0.75 C 3.773438 -0.625 3.859375 -0.507812 3.953125 -0.40625 C 4.046875 -0.300781 4.160156 -0.25 4.296875 -0.25 L 4.296875 0 L 1.015625 0 L 1.015625 -0.25 C 1.128906 -0.25 1.234375 -0.300781 1.328125 -0.40625 C 1.429688 -0.507812 1.519531 -0.625 1.59375 -0.75 C 1.675781 -0.882812 1.734375 -1.03125 1.765625 -1.1875 C 1.796875 -1.351562 1.8125 -1.503906 1.8125 -1.640625 L 1.8125 -9.75 L 0.5625 -9.75 L 0.5625 -10.609375 L 1.8125 -10.609375 L 1.8125 -12.65625 C 1.8125 -13.175781 1.828125 -13.679688 1.859375 -14.171875 C 1.898438 -14.660156 2.003906 -15.097656 2.171875 -15.484375 C 2.335938 -15.867188 2.59375 -16.179688 2.9375 -16.421875 C 3.289062 -16.660156 3.769531 -16.78125 4.375 -16.78125 C 4.707031 -16.78125 4.992188 -16.738281 5.234375 -16.65625 C 5.484375 -16.582031 5.695312 -16.5 5.875 -16.40625 C 6.050781 -16.3125 6.195312 -16.226562 6.3125 -16.15625 C 6.4375 -16.082031 6.539062 -16.046875 6.625 -16.046875 L 6.625 -14.203125 L 6.390625 -14.203125 C 6.304688 -14.691406 6.085938 -15.097656 5.734375 -15.421875 C 5.378906 -15.753906 5.023438 -15.921875 4.671875 -15.921875 C 4.179688 -15.921875 3.859375 -15.660156 3.703125 -15.140625 C 3.554688 -14.628906 3.484375 -13.921875 3.484375 -13.015625 L 3.484375 -10.609375 L 6.34375 -10.609375 L 6.34375 -9.75 Z M 3.484375 -9.75 "/></g></g></g><g fill="#ffffff" fill-opacity="1"><g transform="translate(32.234257, 22.262517)"><g><path d="M 3.484375 -9.75 L 3.484375 -1.640625 C 3.484375 -1.503906 3.5 -1.351562 3.53125 -1.1875 C 3.570312 -1.03125 3.628906 -0.882812 3.703125 -0.75 C 3.773438 -0.625 3.859375 -0.507812 3.953125 -0.40625 C 4.046875 -0.300781 4.160156 -0.25 4.296875 -0.25 L 4.296875 0 L 1.015625 0 L 1.015625 -0.25 C 1.128906 -0.25 1.234375 -0.300781 1.328125 -0.40625 C 1.429688 -0.507812 1.519531 -0.625 1.59375 -0.75 C 1.675781 -0.882812 1.734375 -1.03125 1.765625 -1.1875 C 1.796875 -1.351562 1.8125 -1.503906 1.8125 -1.640625 L 1.8125 -9.75 L 0.5625 -9.75 L 0.5625 -10.609375 L 1.8125 -10.609375 L 1.8125 -12.65625 C 1.8125 -13.175781 1.828125 -13.679688 1.859375 -14.171875 C 1.898438 -14.660156 2.003906 -15.097656 2.171875 -15.484375 C 2.335938 -15.867188 2.59375 -16.179688 2.9375 -16.421875 C 3.289062 -16.660156 3.769531 -16.78125 4.375 -16.78125 C 4.707031 -16.78125 4.992188 -16.738281 5.234375 -16.65625 C 5.484375 -16.582031 5.695312 -16.5 5.875 -16.40625 C 6.050781 -16.3125 6.195312 -16.226562 6.3125 -16.15625 C 6.4375 -16.082031 6.539062 -16.046875 6.625 -16.046875 L 6.625 -14.203125 L 6.390625 -14.203125 C 6.304688 -14.691406 6.085938 -15.097656 5.734375 -15.421875 C 5.378906 -15.753906 5.023438 -15.921875 4.671875 -15.921875 C 4.179688 -15.921875 3.859375 -15.660156 3.703125 -15.140625 C 3.554688 -14.628906 3.484375 -13.921875 3.484375 -13.015625 L 3.484375 -10.609375 L 6.34375 -10.609375 L 6.34375 -9.75 Z M 3.484375 -9.75 "/></g></g></g><g fill="#ffffff" fill-opacity="1"><g transform="translate(39.309473, 22.262517)"><g><path d="M 1.484375 0 L 1.484375 -0.25 C 1.617188 -0.25 1.738281 -0.300781 1.84375 -0.40625 C 1.945312 -0.507812 2.03125 -0.625 2.09375 -0.75 C 2.164062 -0.882812 2.21875 -1.03125 2.25 -1.1875 C 2.28125 -1.351562 2.296875 -1.503906 2.296875 -1.640625 L 2.296875 -8.640625 C 2.296875 -8.929688 2.253906 -9.207031 2.171875 -9.46875 C 2.085938 -9.726562 1.84375 -9.863281 1.4375 -9.875 L 1.4375 -10.109375 L 3.96875 -10.921875 L 3.96875 -1.640625 C 3.96875 -1.503906 3.984375 -1.351562 4.015625 -1.1875 C 4.046875 -1.03125 4.09375 -0.882812 4.15625 -0.75 C 4.226562 -0.625 4.316406 -0.507812 4.421875 -0.40625 C 4.523438 -0.300781 4.644531 -0.25 4.78125 -0.25 L 4.78125 0 Z M 1.609375 -13.34375 C 1.609375 -13.675781 1.722656 -13.957031 1.953125 -14.1875 C 2.179688 -14.425781 2.460938 -14.546875 2.796875 -14.546875 C 3.140625 -14.546875 3.425781 -14.425781 3.65625 -14.1875 C 3.894531 -13.957031 4.015625 -13.675781 4.015625 -13.34375 C 4.015625 -13 3.894531 -12.71875 3.65625 -12.5 C 3.425781 -12.28125 3.140625 -12.171875 2.796875 -12.171875 C 2.460938 -12.171875 2.179688 -12.28125 1.953125 -12.5 C 1.722656 -12.71875 1.609375 -13 1.609375 -13.34375 Z M 1.609375 -13.34375 "/></g></g></g><g fill="#ffffff" fill-opacity="1"><g transform="translate(45.651896, 22.262517)"><g><path d="M 10.453125 -0.90625 C 10.328125 -0.90625 10.203125 -0.875 10.078125 -0.8125 C 9.960938 -0.757812 9.828125 -0.691406 9.671875 -0.609375 C 9.390625 -0.441406 9.03125 -0.269531 8.59375 -0.09375 C 8.15625 0.0820312 7.582031 0.171875 6.875 0.171875 C 6.007812 0.171875 5.210938 0.0351562 4.484375 -0.234375 C 3.753906 -0.515625 3.125 -0.898438 2.59375 -1.390625 C 2.0625 -1.890625 1.644531 -2.472656 1.34375 -3.140625 C 1.050781 -3.804688 0.90625 -4.53125 0.90625 -5.3125 C 0.90625 -6.03125 1.035156 -6.71875 1.296875 -7.375 C 1.554688 -8.03125 1.929688 -8.609375 2.421875 -9.109375 C 2.910156 -9.617188 3.515625 -10.023438 4.234375 -10.328125 C 4.953125 -10.628906 5.765625 -10.78125 6.671875 -10.78125 C 7.296875 -10.78125 7.800781 -10.707031 8.1875 -10.5625 C 8.570312 -10.425781 8.898438 -10.289062 9.171875 -10.15625 C 9.328125 -10.070312 9.472656 -10.003906 9.609375 -9.953125 C 9.753906 -9.898438 9.90625 -9.875 10.0625 -9.875 L 10.0625 -7.953125 L 9.796875 -7.953125 C 9.710938 -8.273438 9.5625 -8.554688 9.34375 -8.796875 C 9.125 -9.046875 8.867188 -9.253906 8.578125 -9.421875 C 8.296875 -9.585938 7.988281 -9.710938 7.65625 -9.796875 C 7.320312 -9.878906 6.992188 -9.921875 6.671875 -9.921875 C 5.984375 -9.921875 5.375 -9.800781 4.84375 -9.5625 C 4.320312 -9.320312 3.894531 -9.003906 3.5625 -8.609375 C 3.226562 -8.210938 2.972656 -7.757812 2.796875 -7.25 C 2.628906 -6.75 2.546875 -6.226562 2.546875 -5.6875 C 2.546875 -5.0625 2.644531 -4.445312 2.84375 -3.84375 C 3.050781 -3.25 3.34375 -2.71875 3.71875 -2.25 C 4.101562 -1.78125 4.5625 -1.398438 5.09375 -1.109375 C 5.632812 -0.828125 6.242188 -0.6875 6.921875 -0.6875 C 7.390625 -0.6875 7.820312 -0.753906 8.21875 -0.890625 C 8.613281 -1.023438 8.953125 -1.203125 9.234375 -1.421875 C 9.515625 -1.640625 9.738281 -1.878906 9.90625 -2.140625 C 10.070312 -2.398438 10.171875 -2.644531 10.203125 -2.875 L 10.453125 -2.875 Z M 10.453125 -0.90625 "/></g></g></g><g fill="#ffffff" fill-opacity="1"><g transform="translate(56.669008, 22.262517)"><g><path d="M 1.484375 0 L 1.484375 -0.25 C 1.617188 -0.25 1.738281 -0.300781 1.84375 -0.40625 C 1.945312 -0.507812 2.03125 -0.625 2.09375 -0.75 C 2.164062 -0.882812 2.21875 -1.03125 2.25 -1.1875 C 2.28125 -1.351562 2.296875 -1.503906 2.296875 -1.640625 L 2.296875 -8.640625 C 2.296875 -8.929688 2.253906 -9.207031 2.171875 -9.46875 C 2.085938 -9.726562 1.84375 -9.863281 1.4375 -9.875 L 1.4375 -10.109375 L 3.96875 -10.921875 L 3.96875 -1.640625 C 3.96875 -1.503906 3.984375 -1.351562 4.015625 -1.1875 C 4.046875 -1.03125 4.09375 -0.882812 4.15625 -0.75 C 4.226562 -0.625 4.316406 -0.507812 4.421875 -0.40625 C 4.523438 -0.300781 4.644531 -0.25 4.78125 -0.25 L 4.78125 0 Z M 1.609375 -13.34375 C 1.609375 -13.675781 1.722656 -13.957031 1.953125 -14.1875 C 2.179688 -14.425781 2.460938 -14.546875 2.796875 -14.546875 C 3.140625 -14.546875 3.425781 -14.425781 3.65625 -14.1875 C 3.894531 -13.957031 4.015625 -13.675781 4.015625 -13.34375 C 4.015625 -13 3.894531 -12.71875 3.65625 -12.5 C 3.425781 -12.28125 3.140625 -12.171875 2.796875 -12.171875 C 2.460938 -12.171875 2.179688 -12.28125 1.953125 -12.5 C 1.722656 -12.71875 1.609375 -13 1.609375 -13.34375 Z M 1.609375 -13.34375 "/></g></g></g><g fill="#ffffff" fill-opacity="1"><g transform="translate(63.011431, 22.262517)"><g><path d="M 2.53125 -5.109375 C 2.59375 -4.515625 2.734375 -3.953125 2.953125 -3.421875 C 3.171875 -2.890625 3.460938 -2.421875 3.828125 -2.015625 C 4.191406 -1.617188 4.632812 -1.296875 5.15625 -1.046875 C 5.675781 -0.804688 6.28125 -0.6875 6.96875 -0.6875 C 7.34375 -0.6875 7.734375 -0.738281 8.140625 -0.84375 C 8.554688 -0.957031 8.941406 -1.113281 9.296875 -1.3125 C 9.648438 -1.507812 9.960938 -1.753906 10.234375 -2.046875 C 10.515625 -2.347656 10.707031 -2.6875 10.8125 -3.0625 L 11.046875 -3.0625 L 11.046875 -1.15625 C 10.941406 -1.15625 10.828125 -1.117188 10.703125 -1.046875 C 10.578125 -0.984375 10.429688 -0.90625 10.265625 -0.8125 C 9.921875 -0.601562 9.460938 -0.382812 8.890625 -0.15625 C 8.316406 0.0625 7.5625 0.171875 6.625 0.171875 C 5.863281 0.171875 5.140625 0.0625 4.453125 -0.15625 C 3.773438 -0.375 3.175781 -0.707031 2.65625 -1.15625 C 2.132812 -1.613281 1.71875 -2.195312 1.40625 -2.90625 C 1.09375 -3.613281 0.9375 -4.457031 0.9375 -5.4375 C 0.9375 -6.050781 1.039062 -6.675781 1.25 -7.3125 C 1.457031 -7.957031 1.773438 -8.535156 2.203125 -9.046875 C 2.640625 -9.566406 3.191406 -9.984375 3.859375 -10.296875 C 4.535156 -10.617188 5.347656 -10.78125 6.296875 -10.78125 C 7.128906 -10.78125 7.863281 -10.632812 8.5 -10.34375 C 9.132812 -10.0625 9.65625 -9.664062 10.0625 -9.15625 C 10.476562 -8.65625 10.785156 -8.0625 10.984375 -7.375 C 11.191406 -6.6875 11.296875 -5.929688 11.296875 -5.109375 Z M 6.1875 -9.953125 C 5.601562 -9.953125 5.09375 -9.832031 4.65625 -9.59375 C 4.226562 -9.363281 3.863281 -9.0625 3.5625 -8.6875 C 3.257812 -8.320312 3.023438 -7.898438 2.859375 -7.421875 C 2.691406 -6.953125 2.582031 -6.484375 2.53125 -6.015625 L 9.734375 -6.015625 C 9.710938 -6.503906 9.617188 -6.984375 9.453125 -7.453125 C 9.296875 -7.921875 9.070312 -8.335938 8.78125 -8.703125 C 8.5 -9.078125 8.140625 -9.378906 7.703125 -9.609375 C 7.265625 -9.835938 6.757812 -9.953125 6.1875 -9.953125 Z M 6.1875 -9.953125 "/></g></g></g><g fill="#ffffff" fill-opacity="1"><g transform="translate(75.266711, 22.262517)"><g><path d="M 11.296875 -1.640625 C 11.296875 -1.503906 11.3125 -1.351562 11.34375 -1.1875 C 11.375 -1.03125 11.425781 -0.882812 11.5 -0.75 C 11.582031 -0.625 11.671875 -0.507812 11.765625 -0.40625 C 11.859375 -0.300781 11.972656 -0.25 12.109375 -0.25 L 12.109375 0 L 8.84375 0 L 8.84375 -0.25 C 8.957031 -0.25 9.066406 -0.300781 9.171875 -0.40625 C 9.273438 -0.507812 9.363281 -0.625 9.4375 -0.75 C 9.507812 -0.882812 9.5625 -1.03125 9.59375 -1.1875 C 9.632812 -1.351562 9.65625 -1.503906 9.65625 -1.640625 L 9.65625 -6.34375 C 9.65625 -6.945312 9.566406 -7.472656 9.390625 -7.921875 C 9.222656 -8.378906 8.992188 -8.757812 8.703125 -9.0625 C 8.421875 -9.375 8.097656 -9.597656 7.734375 -9.734375 C 7.378906 -9.878906 7.015625 -9.953125 6.640625 -9.953125 C 6.273438 -9.953125 5.910156 -9.875 5.546875 -9.71875 C 5.179688 -9.570312 4.859375 -9.375 4.578125 -9.125 C 4.304688 -8.882812 4.082031 -8.597656 3.90625 -8.265625 C 3.726562 -7.941406 3.640625 -7.601562 3.640625 -7.25 L 3.640625 -1.640625 C 3.640625 -1.503906 3.65625 -1.351562 3.6875 -1.1875 C 3.71875 -1.03125 3.769531 -0.882812 3.84375 -0.75 C 3.925781 -0.625 4.015625 -0.507812 4.109375 -0.40625 C 4.203125 -0.300781 4.316406 -0.25 4.453125 -0.25 L 4.453125 0 L 1.15625 0 L 1.15625 -0.25 C 1.28125 -0.25 1.390625 -0.300781 1.484375 -0.40625 C 1.585938 -0.507812 1.675781 -0.625 1.75 -0.75 C 1.832031 -0.882812 1.890625 -1.03125 1.921875 -1.1875 C 1.953125 -1.351562 1.96875 -1.503906 1.96875 -1.640625 L 1.96875 -8.609375 C 1.96875 -8.898438 1.925781 -9.175781 1.84375 -9.4375 C 1.757812 -9.695312 1.515625 -9.835938 1.109375 -9.859375 L 1.109375 -10.078125 L 3.640625 -10.890625 L 3.640625 -9.5 C 3.753906 -9.632812 3.90625 -9.78125 4.09375 -9.9375 C 4.28125 -10.101562 4.503906 -10.253906 4.765625 -10.390625 C 5.023438 -10.535156 5.328125 -10.65625 5.671875 -10.75 C 6.015625 -10.84375 6.421875 -10.890625 6.890625 -10.890625 C 7.679688 -10.890625 8.351562 -10.753906 8.90625 -10.484375 C 9.46875 -10.210938 9.925781 -9.863281 10.28125 -9.4375 C 10.632812 -9.007812 10.890625 -8.535156 11.046875 -8.015625 C 11.210938 -7.503906 11.296875 -7.003906 11.296875 -6.515625 Z M 11.296875 -1.640625 "/></g></g></g><g fill="#ffffff" fill-opacity="1"><g transform="translate(88.709616, 22.262517)"><g><path d="M 3.609375 -9.75 L 3.609375 -3.65625 C 3.609375 -3.21875 3.613281 -2.820312 3.625 -2.46875 C 3.644531 -2.125 3.6875 -1.832031 3.75 -1.59375 C 3.820312 -1.351562 3.925781 -1.171875 4.0625 -1.046875 C 4.195312 -0.921875 4.382812 -0.859375 4.625 -0.859375 C 4.976562 -0.859375 5.3125 -1.023438 5.625 -1.359375 C 5.9375 -1.703125 6.132812 -2.109375 6.21875 -2.578125 L 6.4375 -2.578125 L 6.4375 -0.734375 C 6.289062 -0.734375 6.164062 -0.679688 6.0625 -0.578125 C 5.925781 -0.460938 5.734375 -0.335938 5.484375 -0.203125 C 5.242188 -0.0664062 4.878906 0 4.390625 0 C 3.785156 0 3.3125 -0.113281 2.96875 -0.34375 C 2.632812 -0.582031 2.390625 -0.894531 2.234375 -1.28125 C 2.085938 -1.675781 2.003906 -2.109375 1.984375 -2.578125 C 1.960938 -3.046875 1.953125 -3.523438 1.953125 -4.015625 L 1.953125 -9.75 L 0.53125 -9.75 L 0.53125 -10.609375 L 1.953125 -10.609375 L 1.953125 -12.859375 C 1.953125 -13.148438 1.910156 -13.414062 1.828125 -13.65625 C 1.753906 -13.894531 1.507812 -14.023438 1.09375 -14.046875 L 1.09375 -14.296875 L 3.609375 -15.109375 L 3.609375 -10.609375 L 6.4375 -10.609375 L 6.4375 -9.75 Z M 3.609375 -9.75 "/></g></g></g></svg>