<svg xmlns="http://www.w3.org/2000/svg" xmlns:xlink="http://www.w3.org/1999/xlink" width="500" zoomAndPan="magnify" viewBox="0 0 375 374.999991" height="500" preserveAspectRatio="xMidYMid meet" version="1.0"><defs><clipPath id="9788dadccb"><path d="M 179.75 12.480469 L 245.355469 12.480469 L 245.355469 71.414062 L 179.75 71.414062 Z M 179.75 12.480469 " clip-rule="nonzero"/></clipPath><clipPath id="4c56b7b4c5"><path d="M 218.589844 12.480469 L 179.75 12.480469 L 206.4375 71.199219 L 245.277344 71.199219 L 218.589844 12.480469 " clip-rule="nonzero"/></clipPath><clipPath id="660986aca8"><path d="M 164.136719 12.480469 L 229.742188 12.480469 L 229.742188 71.414062 L 164.136719 71.414062 Z M 164.136719 12.480469 " clip-rule="nonzero"/></clipPath><clipPath id="2c4659ee5b"><path d="M 202.976562 12.480469 L 164.136719 12.480469 L 190.824219 71.199219 L 229.664062 71.199219 L 202.976562 12.480469 " clip-rule="nonzero"/></clipPath><clipPath id="de208629ed"><path d="M 136.164062 12.480469 L 201.773438 12.480469 L 201.773438 71.414062 L 136.164062 71.414062 Z M 136.164062 12.480469 " clip-rule="nonzero"/></clipPath><clipPath id="1fdd268878"><path d="M 175.003906 12.480469 L 136.164062 12.480469 L 162.851562 71.199219 L 201.691406 71.199219 L 175.003906 12.480469 " clip-rule="nonzero"/></clipPath><clipPath id="b3827d5d89"><path d="M 179.75 115.777344 L 306.296875 115.777344 L 306.296875 244 L 179.75 244 Z M 179.75 115.777344 " clip-rule="nonzero"/></clipPath><clipPath id="4d6467af6b"><path d="M 260.257812 115.777344 L 179.75 115.777344 L 225.769531 243.363281 L 306.273438 243.363281 L 260.257812 115.777344 " clip-rule="nonzero"/></clipPath><clipPath id="ca73953cf2"><path d="M 222.925781 234.933594 L 349.46875 234.933594 L 349.46875 363 L 222.925781 363 Z M 222.925781 234.933594 " clip-rule="nonzero"/></clipPath><clipPath id="31bba93864"><path d="M 303.429688 234.933594 L 222.925781 234.933594 L 268.941406 362.519531 L 349.445312 362.519531 L 303.429688 234.933594 " clip-rule="nonzero"/></clipPath><clipPath id="ba5ad828fc"><path d="M 25.554688 224.46875 L 152 224.46875 L 152 362.519531 L 25.554688 362.519531 Z M 25.554688 224.46875 " clip-rule="nonzero"/></clipPath><clipPath id="6a9af2ecd0"><path d="M 71.570312 224.46875 L 151.570312 224.46875 L 105.554688 362.519531 L 25.554688 362.519531 L 71.570312 224.46875 " clip-rule="nonzero"/></clipPath><clipPath id="16815bcb12"><path d="M 78.191406 73.824219 L 158.410156 73.824219 L 158.410156 205 L 78.191406 205 Z M 78.191406 73.824219 " clip-rule="nonzero"/></clipPath><clipPath id="23766e5650"><path d="M 118.179688 73.824219 L 158.167969 204.824219 L 78.191406 204.824219 L 118.179688 73.824219 " clip-rule="nonzero"/></clipPath><clipPath id="9453276296"><path d="M 32.148438 204.824219 L 158 204.824219 L 158 342.871094 L 32.148438 342.871094 Z M 32.148438 204.824219 " clip-rule="nonzero"/></clipPath><clipPath id="67c6f6ef70"><path d="M 78.164062 204.824219 L 158.167969 204.824219 L 112.148438 342.871094 L 32.148438 342.871094 L 78.164062 204.824219 " clip-rule="nonzero"/></clipPath><clipPath id="0f7062f570"><path d="M 142 195 L 158 195 L 158 216 L 142 216 Z M 142 195 " clip-rule="nonzero"/></clipPath><clipPath id="e4a4c3b77e"><path d="M 157.496094 194.5625 L 158.167969 215.652344 L 142.488281 216.152344 L 141.8125 195.0625 Z M 157.496094 194.5625 " clip-rule="nonzero"/></clipPath><clipPath id="1825abb43e"><path d="M 157.828125 204.957031 L 142.804688 215.839844 L 142.140625 195.050781 L 157.828125 204.957031 " clip-rule="nonzero"/></clipPath><clipPath id="e3a69163ba"><path d="M 78 200 L 92 200 L 92 212 L 78 212 Z M 78 200 " clip-rule="nonzero"/></clipPath><clipPath id="2e85f744dc"><path d="M 95.460938 209.058594 L 81.726562 214.582031 L 78.003906 205.316406 L 91.738281 199.796875 Z M 95.460938 209.058594 " clip-rule="nonzero"/></clipPath><clipPath id="5272cd21d3"><path d="M 88.644531 211.800781 L 78.179688 205.472656 L 91.816406 199.992188 L 88.644531 211.800781 " clip-rule="nonzero"/></clipPath></defs><g clip-path="url(#9788dadccb)"><g clip-path="url(#4c56b7b4c5)"><path fill="#5271ff" d="M 179.75 12.480469 L 245.355469 12.480469 L 245.355469 71.414062 L 179.75 71.414062 Z M 179.75 12.480469 " fill-opacity="1" fill-rule="nonzero"/></g></g><g clip-path="url(#660986aca8)"><g clip-path="url(#2c4659ee5b)"><path fill="#5271ff" d="M 164.136719 12.480469 L 229.742188 12.480469 L 229.742188 71.414062 L 164.136719 71.414062 Z M 164.136719 12.480469 " fill-opacity="1" fill-rule="nonzero"/></g></g><g clip-path="url(#de208629ed)"><g clip-path="url(#1fdd268878)"><path fill="#5271ff" d="M 136.164062 12.480469 L 201.773438 12.480469 L 201.773438 71.414062 L 136.164062 71.414062 Z M 136.164062 12.480469 " fill-opacity="1" fill-rule="nonzero"/></g></g><g clip-path="url(#b3827d5d89)"><g clip-path="url(#4d6467af6b)"><path fill="#5271ff" d="M 179.75 115.777344 L 306.296875 115.777344 L 306.296875 243.28125 L 179.75 243.28125 Z M 179.75 115.777344 " fill-opacity="1" fill-rule="nonzero"/></g></g><g clip-path="url(#ca73953cf2)"><g clip-path="url(#31bba93864)"><path fill="#5271ff" d="M 222.925781 234.933594 L 349.46875 234.933594 L 349.46875 362.433594 L 222.925781 362.433594 Z M 222.925781 234.933594 " fill-opacity="1" fill-rule="nonzero"/></g></g><g clip-path="url(#ba5ad828fc)"><g clip-path="url(#6a9af2ecd0)"><path fill="#5271ff" d="M 25.554688 224.46875 L 151.140625 224.46875 L 151.140625 362.519531 L 25.554688 362.519531 Z M 25.554688 224.46875 " fill-opacity="1" fill-rule="nonzero"/></g></g><g clip-path="url(#16815bcb12)"><g clip-path="url(#23766e5650)"><path fill="#5271ff" d="M 78.191406 73.824219 L 158.410156 73.824219 L 158.410156 204.46875 L 78.191406 204.46875 Z M 78.191406 73.824219 " fill-opacity="1" fill-rule="nonzero"/></g></g><g clip-path="url(#9453276296)"><g clip-path="url(#67c6f6ef70)"><path fill="#5271ff" d="M 32.148438 204.824219 L 157.734375 204.824219 L 157.734375 342.871094 L 32.148438 342.871094 Z M 32.148438 204.824219 " fill-opacity="1" fill-rule="nonzero"/></g></g><path stroke-linecap="butt" transform="matrix(1.228128, 0, 0, 1.2271, 82.909753, 202.370099)" fill="none" stroke-linejoin="miter" d="M 0.000327974 1.999935 L 55.954384 1.999935 " stroke="#5271ff" stroke-width="4" stroke-opacity="1" stroke-miterlimit="4"/><g clip-path="url(#0f7062f570)"><g clip-path="url(#e4a4c3b77e)"><g clip-path="url(#1825abb43e)"><path fill="#5271ff" d="M 157.496094 194.5625 L 158.152344 215.109375 L 143.011719 215.59375 L 142.355469 195.046875 Z M 157.496094 194.5625 " fill-opacity="1" fill-rule="nonzero"/></g></g></g><g clip-path="url(#e3a69163ba)"><g clip-path="url(#2e85f744dc)"><g clip-path="url(#5272cd21d3)"><path fill="#5271ff" d="M 95.460938 209.058594 L 81.726562 214.582031 L 78.132812 205.636719 L 91.867188 200.117188 Z M 95.460938 209.058594 " fill-opacity="1" fill-rule="nonzero"/></g></g></g></svg>