<svg xmlns="http://www.w3.org/2000/svg" xmlns:xlink="http://www.w3.org/1999/xlink" width="500" zoomAndPan="magnify" viewBox="0 0 375 374.999991" height="500" preserveAspectRatio="xMidYMid meet" version="1.0"><defs><g/><clipPath id="70ef5e4755"><path d="M 36.1875 197.3125 L 47.476562 197.3125 L 47.476562 207.472656 L 36.1875 207.472656 Z M 36.1875 197.3125 " clip-rule="nonzero"/></clipPath><clipPath id="4aa7786490"><path d="M 42.761719 197.3125 L 36.1875 197.3125 L 40.703125 207.246094 L 47.277344 207.246094 L 42.761719 197.3125 " clip-rule="nonzero"/></clipPath><clipPath id="ffefb0368a"><path d="M 33.546875 197.3125 L 44.835938 197.3125 L 44.835938 207.472656 L 33.546875 207.472656 Z M 33.546875 197.3125 " clip-rule="nonzero"/></clipPath><clipPath id="4b81d03c25"><path d="M 40.117188 197.3125 L 33.546875 197.3125 L 38.0625 207.246094 L 44.636719 207.246094 L 40.117188 197.3125 " clip-rule="nonzero"/></clipPath><clipPath id="f82e56a2cc"><path d="M 28.8125 197.3125 L 40 197.3125 L 40 207.472656 L 28.8125 207.472656 Z M 28.8125 197.3125 " clip-rule="nonzero"/></clipPath><clipPath id="2179475705"><path d="M 35.386719 197.3125 L 28.8125 197.3125 L 33.328125 207.246094 L 39.902344 207.246094 L 35.386719 197.3125 " clip-rule="nonzero"/></clipPath><clipPath id="ba731be85b"><path d="M 36.1875 214.789062 L 57.601562 214.789062 L 57.601562 236.691406 L 36.1875 236.691406 Z M 36.1875 214.789062 " clip-rule="nonzero"/></clipPath><clipPath id="35aaf69468"><path d="M 49.8125 214.789062 L 36.1875 214.789062 L 43.976562 236.378906 L 57.597656 236.378906 L 49.8125 214.789062 " clip-rule="nonzero"/></clipPath><clipPath id="5fb25f6b86"><path d="M 43.496094 234.953125 L 64.90625 234.953125 L 64.90625 256.851562 L 43.496094 256.851562 Z M 43.496094 234.953125 " clip-rule="nonzero"/></clipPath><clipPath id="b511bd479f"><path d="M 57.117188 234.953125 L 43.496094 234.953125 L 51.28125 256.542969 L 64.902344 256.542969 L 57.117188 234.953125 " clip-rule="nonzero"/></clipPath><clipPath id="7f05dac840"><path d="M 10.097656 233.183594 L 31.507812 233.183594 L 31.507812 256.542969 L 10.097656 256.542969 Z M 10.097656 233.183594 " clip-rule="nonzero"/></clipPath><clipPath id="cef4daa1b0"><path d="M 17.882812 233.183594 L 31.421875 233.183594 L 23.632812 256.542969 L 10.097656 256.542969 L 17.882812 233.183594 " clip-rule="nonzero"/></clipPath><clipPath id="22c4db85eb"><path d="M 19.003906 207.691406 L 32.964844 207.691406 L 32.964844 230 L 19.003906 230 Z M 19.003906 207.691406 " clip-rule="nonzero"/></clipPath><clipPath id="09e5eee1ee"><path d="M 25.769531 207.691406 L 32.535156 229.859375 L 19.003906 229.859375 L 25.769531 207.691406 " clip-rule="nonzero"/></clipPath><clipPath id="a7e8c22b03"><path d="M 11.210938 229.859375 L 32.625 229.859375 L 32.625 253.21875 L 11.210938 253.21875 Z M 11.210938 229.859375 " clip-rule="nonzero"/></clipPath><clipPath id="80fba0223a"><path d="M 19 229.859375 L 32.535156 229.859375 L 24.75 253.21875 L 11.210938 253.21875 L 19 229.859375 " clip-rule="nonzero"/></clipPath><clipPath id="79f02e8938"><path d="M 29 228 L 33 228 L 33 232 L 29 232 Z M 29 228 " clip-rule="nonzero"/></clipPath><clipPath id="80e27a7974"><path d="M 32.417969 228.117188 L 32.53125 231.6875 L 29.878906 231.769531 L 29.765625 228.203125 Z M 32.417969 228.117188 " clip-rule="nonzero"/></clipPath><clipPath id="b90a26455b"><path d="M 32.472656 229.875 L 29.933594 231.71875 L 29.820312 228.199219 L 32.472656 229.875 " clip-rule="nonzero"/></clipPath><clipPath id="8669253674"><path d="M 19 229 L 22 229 L 22 232 L 19 232 Z M 19 229 " clip-rule="nonzero"/></clipPath><clipPath id="3ef7045556"><path d="M 21.925781 230.574219 L 19.601562 231.511719 L 18.972656 229.941406 L 21.296875 229.007812 Z M 21.925781 230.574219 " clip-rule="nonzero"/></clipPath><clipPath id="85a074e17f"><path d="M 20.773438 231.039062 L 19 229.96875 L 21.308594 229.042969 L 20.773438 231.039062 " clip-rule="nonzero"/></clipPath></defs><g clip-path="url(#70ef5e4755)"><g clip-path="url(#4aa7786490)"><path fill="#5271ff" d="M 36.1875 197.3125 L 47.195312 197.3125 L 47.195312 207.1875 L 36.1875 207.1875 Z M 36.1875 197.3125 " fill-opacity="1" fill-rule="nonzero"/></g></g><g clip-path="url(#ffefb0368a)"><g clip-path="url(#4b81d03c25)"><path fill="#5271ff" d="M 33.546875 197.3125 L 44.554688 197.3125 L 44.554688 207.1875 L 33.546875 207.1875 Z M 33.546875 197.3125 " fill-opacity="1" fill-rule="nonzero"/></g></g><g clip-path="url(#f82e56a2cc)"><g clip-path="url(#2179475705)"><path fill="#5271ff" d="M 28.8125 197.3125 L 39.820312 197.3125 L 39.820312 207.1875 L 28.8125 207.1875 Z M 28.8125 197.3125 " fill-opacity="1" fill-rule="nonzero"/></g></g><g clip-path="url(#ba731be85b)"><g clip-path="url(#35aaf69468)"><path fill="#5271ff" d="M 36.1875 214.789062 L 57.601562 214.789062 L 57.601562 236.203125 L 36.1875 236.203125 Z M 36.1875 214.789062 " fill-opacity="1" fill-rule="nonzero"/></g></g><g clip-path="url(#5fb25f6b86)"><g clip-path="url(#b511bd479f)"><path fill="#5271ff" d="M 43.496094 234.953125 L 64.90625 234.953125 L 64.90625 256.367188 L 43.496094 256.367188 Z M 43.496094 234.953125 " fill-opacity="1" fill-rule="nonzero"/></g></g><g clip-path="url(#7f05dac840)"><g clip-path="url(#cef4daa1b0)"><path fill="#5271ff" d="M 10.097656 233.183594 L 31.507812 233.183594 L 31.507812 256.542969 L 10.097656 256.542969 Z M 10.097656 233.183594 " fill-opacity="1" fill-rule="nonzero"/></g></g><g clip-path="url(#22c4db85eb)"><g clip-path="url(#09e5eee1ee)"><path fill="#5271ff" d="M 19.003906 207.691406 L 32.382812 207.691406 L 32.382812 229.796875 L 19.003906 229.796875 Z M 19.003906 207.691406 " fill-opacity="1" fill-rule="nonzero"/></g></g><g clip-path="url(#a7e8c22b03)"><g clip-path="url(#80fba0223a)"><path fill="#5271ff" d="M 11.210938 229.859375 L 32.625 229.859375 L 32.625 253.21875 L 11.210938 253.21875 Z M 11.210938 229.859375 " fill-opacity="1" fill-rule="nonzero"/></g></g><path stroke-linecap="butt" transform="matrix(0.726539, 0, 0, 0.75, 19.801887, 229.483139)" fill="none" stroke-linejoin="miter" d="M -0.00152255 0.501648 L 15.493606 0.501648 " stroke="#5271ff" stroke-width="1" stroke-opacity="1" stroke-miterlimit="4"/><g clip-path="url(#79f02e8938)"><g clip-path="url(#80e27a7974)"><g clip-path="url(#b90a26455b)"><path fill="#5271ff" d="M 32.417969 228.117188 L 32.527344 231.59375 L 29.964844 231.675781 L 29.855469 228.199219 Z M 32.417969 228.117188 " fill-opacity="1" fill-rule="nonzero"/></g></g></g><g clip-path="url(#8669253674)"><g clip-path="url(#3ef7045556)"><g clip-path="url(#85a074e17f)"><path fill="#5271ff" d="M 21.925781 230.574219 L 19.601562 231.511719 L 18.992188 229.996094 L 21.316406 229.0625 Z M 21.925781 230.574219 " fill-opacity="1" fill-rule="nonzero"/></g></g></g><g fill="#5271ff" fill-opacity="1"><g transform="translate(67.167729, 256.500643)"><g><path d="M 4.5 -60.6875 L 17.65625 -60.6875 L 17.65625 -59.765625 L 17.1875 -59.765625 C 16.757812 -59.765625 16.363281 -59.597656 16 -59.265625 C 15.632812 -58.929688 15.328125 -58.53125 15.078125 -58.0625 C 14.835938 -57.601562 14.640625 -57.082031 14.484375 -56.5 C 14.328125 -55.914062 14.25 -55.410156 14.25 -54.984375 L 14.25 -5.984375 C 14.25 -5.484375 14.3125 -4.941406 14.4375 -4.359375 C 14.5625 -3.785156 14.757812 -3.25 15.03125 -2.75 C 15.3125 -2.257812 15.617188 -1.832031 15.953125 -1.46875 C 16.285156 -1.101562 16.695312 -0.921875 17.1875 -0.921875 L 17.65625 -0.921875 L 17.65625 0 L 4.5 0 L 4.5 -0.921875 L 4.96875 -0.921875 C 5.457031 -0.921875 5.882812 -1.085938 6.25 -1.421875 C 6.613281 -1.765625 6.929688 -2.195312 7.203125 -2.71875 C 7.484375 -3.238281 7.6875 -3.785156 7.8125 -4.359375 C 7.9375 -4.941406 8 -5.484375 8 -5.984375 L 8 -54.984375 C 8 -55.410156 7.9375 -55.898438 7.8125 -56.453125 C 7.6875 -57.003906 7.484375 -57.523438 7.203125 -58.015625 C 6.929688 -58.515625 6.613281 -58.929688 6.25 -59.265625 C 5.882812 -59.597656 5.457031 -59.765625 4.96875 -59.765625 L 4.5 -59.765625 Z M 4.5 -60.6875 "/></g></g></g><g fill="#fefeff" fill-opacity="1"><g transform="translate(89.503665, 256.500643)"><g><path d="M 12.6875 -35.5 L 12.6875 -5.984375 C 12.6875 -5.484375 12.75 -4.941406 12.875 -4.359375 C 13 -3.785156 13.195312 -3.25 13.46875 -2.75 C 13.75 -2.257812 14.054688 -1.832031 14.390625 -1.46875 C 14.722656 -1.101562 15.132812 -0.921875 15.625 -0.921875 L 15.625 0 L 3.671875 0 L 3.671875 -0.921875 C 4.109375 -0.921875 4.507812 -1.101562 4.875 -1.46875 C 5.238281 -1.832031 5.554688 -2.257812 5.828125 -2.75 C 6.109375 -3.25 6.3125 -3.785156 6.4375 -4.359375 C 6.5625 -4.941406 6.625 -5.484375 6.625 -5.984375 L 6.625 -35.5 L 2.015625 -35.5 L 2.015625 -38.625 L 6.625 -38.625 L 6.625 -46.0625 C 6.625 -47.96875 6.679688 -49.804688 6.796875 -51.578125 C 6.921875 -53.359375 7.289062 -54.953125 7.90625 -56.359375 C 8.519531 -57.773438 9.453125 -58.910156 10.703125 -59.765625 C 11.960938 -60.628906 13.695312 -61.0625 15.90625 -61.0625 C 17.132812 -61.0625 18.191406 -60.921875 19.078125 -60.640625 C 19.960938 -60.367188 20.726562 -60.0625 21.375 -59.71875 C 22.019531 -59.382812 22.554688 -59.078125 22.984375 -58.796875 C 23.410156 -58.523438 23.78125 -58.390625 24.09375 -58.390625 L 24.09375 -51.671875 L 23.265625 -51.671875 C 22.953125 -53.453125 22.148438 -54.941406 20.859375 -56.140625 C 19.578125 -57.335938 18.296875 -57.9375 17.015625 -57.9375 C 15.234375 -57.9375 14.066406 -57 13.515625 -55.125 C 12.960938 -53.257812 12.6875 -50.671875 12.6875 -47.359375 L 12.6875 -38.625 L 23.078125 -38.625 L 23.078125 -35.5 Z M 12.6875 -35.5 "/></g></g></g><g fill="#fefeff" fill-opacity="1"><g transform="translate(115.251634, 256.500643)"><g><path d="M 12.6875 -35.5 L 12.6875 -5.984375 C 12.6875 -5.484375 12.75 -4.941406 12.875 -4.359375 C 13 -3.785156 13.195312 -3.25 13.46875 -2.75 C 13.75 -2.257812 14.054688 -1.832031 14.390625 -1.46875 C 14.722656 -1.101562 15.132812 -0.921875 15.625 -0.921875 L 15.625 0 L 3.671875 0 L 3.671875 -0.921875 C 4.109375 -0.921875 4.507812 -1.101562 4.875 -1.46875 C 5.238281 -1.832031 5.554688 -2.257812 5.828125 -2.75 C 6.109375 -3.25 6.3125 -3.785156 6.4375 -4.359375 C 6.5625 -4.941406 6.625 -5.484375 6.625 -5.984375 L 6.625 -35.5 L 2.015625 -35.5 L 2.015625 -38.625 L 6.625 -38.625 L 6.625 -46.0625 C 6.625 -47.96875 6.679688 -49.804688 6.796875 -51.578125 C 6.921875 -53.359375 7.289062 -54.953125 7.90625 -56.359375 C 8.519531 -57.773438 9.453125 -58.910156 10.703125 -59.765625 C 11.960938 -60.628906 13.695312 -61.0625 15.90625 -61.0625 C 17.132812 -61.0625 18.191406 -60.921875 19.078125 -60.640625 C 19.960938 -60.367188 20.726562 -60.0625 21.375 -59.71875 C 22.019531 -59.382812 22.554688 -59.078125 22.984375 -58.796875 C 23.410156 -58.523438 23.78125 -58.390625 24.09375 -58.390625 L 24.09375 -51.671875 L 23.265625 -51.671875 C 22.953125 -53.453125 22.148438 -54.941406 20.859375 -56.140625 C 19.578125 -57.335938 18.296875 -57.9375 17.015625 -57.9375 C 15.234375 -57.9375 14.066406 -57 13.515625 -55.125 C 12.960938 -53.257812 12.6875 -50.671875 12.6875 -47.359375 L 12.6875 -38.625 L 23.078125 -38.625 L 23.078125 -35.5 Z M 12.6875 -35.5 "/></g></g></g><g fill="#fefeff" fill-opacity="1"><g transform="translate(140.999602, 256.500643)"><g><path d="M 5.421875 0 L 5.421875 -0.921875 C 5.910156 -0.921875 6.335938 -1.101562 6.703125 -1.46875 C 7.078125 -1.832031 7.382812 -2.257812 7.625 -2.75 C 7.875 -3.25 8.0625 -3.785156 8.1875 -4.359375 C 8.3125 -4.941406 8.375 -5.484375 8.375 -5.984375 L 8.375 -31.453125 C 8.375 -32.492188 8.21875 -33.488281 7.90625 -34.4375 C 7.601562 -35.382812 6.710938 -35.890625 5.234375 -35.953125 L 5.234375 -36.78125 L 14.4375 -39.71875 L 14.4375 -5.984375 C 14.4375 -5.484375 14.492188 -4.941406 14.609375 -4.359375 C 14.734375 -3.785156 14.921875 -3.25 15.171875 -2.75 C 15.421875 -2.257812 15.726562 -1.832031 16.09375 -1.46875 C 16.457031 -1.101562 16.882812 -0.921875 17.375 -0.921875 L 17.375 0 Z M 5.890625 -48.546875 C 5.890625 -49.773438 6.300781 -50.816406 7.125 -51.671875 C 7.957031 -52.535156 8.984375 -52.96875 10.203125 -52.96875 C 11.429688 -52.96875 12.472656 -52.535156 13.328125 -51.671875 C 14.191406 -50.816406 14.625 -49.773438 14.625 -48.546875 C 14.625 -47.328125 14.191406 -46.316406 13.328125 -45.515625 C 12.472656 -44.722656 11.429688 -44.328125 10.203125 -44.328125 C 8.984375 -44.328125 7.957031 -44.722656 7.125 -45.515625 C 6.300781 -46.316406 5.890625 -47.328125 5.890625 -48.546875 Z M 5.890625 -48.546875 "/></g></g></g><g fill="#fefeff" fill-opacity="1"><g transform="translate(164.080812, 256.500643)"><g><path d="M 38.0625 -3.3125 C 37.570312 -3.3125 37.113281 -3.203125 36.6875 -2.984375 C 36.257812 -2.773438 35.769531 -2.515625 35.21875 -2.203125 C 34.175781 -1.585938 32.859375 -0.957031 31.265625 -0.3125 C 29.671875 0.320312 27.585938 0.640625 25.015625 0.640625 C 21.890625 0.640625 18.992188 0.132812 16.328125 -0.875 C 13.660156 -1.882812 11.359375 -3.289062 9.421875 -5.09375 C 7.492188 -6.90625 5.992188 -9.019531 4.921875 -11.4375 C 3.847656 -13.863281 3.3125 -16.488281 3.3125 -19.3125 C 3.3125 -21.945312 3.785156 -24.457031 4.734375 -26.84375 C 5.679688 -29.238281 7.046875 -31.351562 8.828125 -33.1875 C 10.609375 -35.03125 12.800781 -36.503906 15.40625 -37.609375 C 18.007812 -38.710938 20.96875 -39.265625 24.28125 -39.265625 C 26.539062 -39.265625 28.375 -39.003906 29.78125 -38.484375 C 31.195312 -37.960938 32.394531 -37.457031 33.375 -36.96875 C 33.925781 -36.65625 34.460938 -36.40625 34.984375 -36.21875 C 35.503906 -36.039062 36.039062 -35.953125 36.59375 -35.953125 L 36.59375 -28.96875 L 35.671875 -28.96875 C 35.367188 -30.132812 34.816406 -31.160156 34.015625 -32.046875 C 33.222656 -32.929688 32.304688 -33.679688 31.265625 -34.296875 C 30.222656 -34.910156 29.085938 -35.367188 27.859375 -35.671875 C 26.628906 -35.984375 25.4375 -36.140625 24.28125 -36.140625 C 21.757812 -36.140625 19.546875 -35.691406 17.640625 -34.796875 C 15.742188 -33.910156 14.179688 -32.75 12.953125 -31.3125 C 11.734375 -29.875 10.816406 -28.234375 10.203125 -26.390625 C 9.585938 -24.546875 9.28125 -22.644531 9.28125 -20.6875 C 9.28125 -18.414062 9.648438 -16.191406 10.390625 -14.015625 C 11.128906 -11.847656 12.1875 -9.90625 13.5625 -8.1875 C 14.9375 -6.46875 16.601562 -5.085938 18.5625 -4.046875 C 20.53125 -3.003906 22.738281 -2.484375 25.1875 -2.484375 C 26.90625 -2.484375 28.484375 -2.726562 29.921875 -3.21875 C 31.367188 -3.707031 32.597656 -4.347656 33.609375 -5.140625 C 34.617188 -5.941406 35.429688 -6.816406 36.046875 -7.765625 C 36.660156 -8.710938 37.03125 -9.617188 37.15625 -10.484375 L 38.0625 -10.484375 Z M 38.0625 -3.3125 "/></g></g></g><g fill="#fefeff" fill-opacity="1"><g transform="translate(204.174074, 256.500643)"><g><path d="M 5.421875 0 L 5.421875 -0.921875 C 5.910156 -0.921875 6.335938 -1.101562 6.703125 -1.46875 C 7.078125 -1.832031 7.382812 -2.257812 7.625 -2.75 C 7.875 -3.25 8.0625 -3.785156 8.1875 -4.359375 C 8.3125 -4.941406 8.375 -5.484375 8.375 -5.984375 L 8.375 -31.453125 C 8.375 -32.492188 8.21875 -33.488281 7.90625 -34.4375 C 7.601562 -35.382812 6.710938 -35.890625 5.234375 -35.953125 L 5.234375 -36.78125 L 14.4375 -39.71875 L 14.4375 -5.984375 C 14.4375 -5.484375 14.492188 -4.941406 14.609375 -4.359375 C 14.734375 -3.785156 14.921875 -3.25 15.171875 -2.75 C 15.421875 -2.257812 15.726562 -1.832031 16.09375 -1.46875 C 16.457031 -1.101562 16.882812 -0.921875 17.375 -0.921875 L 17.375 0 Z M 5.890625 -48.546875 C 5.890625 -49.773438 6.300781 -50.816406 7.125 -51.671875 C 7.957031 -52.535156 8.984375 -52.96875 10.203125 -52.96875 C 11.429688 -52.96875 12.472656 -52.535156 13.328125 -51.671875 C 14.191406 -50.816406 14.625 -49.773438 14.625 -48.546875 C 14.625 -47.328125 14.191406 -46.316406 13.328125 -45.515625 C 12.472656 -44.722656 11.429688 -44.328125 10.203125 -44.328125 C 8.984375 -44.328125 7.957031 -44.722656 7.125 -45.515625 C 6.300781 -46.316406 5.890625 -47.328125 5.890625 -48.546875 Z M 5.890625 -48.546875 "/></g></g></g><g fill="#fefeff" fill-opacity="1"><g transform="translate(227.255284, 256.500643)"><g><path d="M 9.1875 -18.578125 C 9.4375 -16.429688 9.957031 -14.390625 10.75 -12.453125 C 11.550781 -10.523438 12.609375 -8.828125 13.921875 -7.359375 C 15.242188 -5.890625 16.851562 -4.707031 18.75 -3.8125 C 20.65625 -2.925781 22.863281 -2.484375 25.375 -2.484375 C 26.726562 -2.484375 28.15625 -2.679688 29.65625 -3.078125 C 31.15625 -3.472656 32.546875 -4.039062 33.828125 -4.78125 C 35.117188 -5.519531 36.269531 -6.425781 37.28125 -7.5 C 38.289062 -8.570312 38.984375 -9.78125 39.359375 -11.125 L 40.1875 -11.125 L 40.1875 -4.234375 C 39.8125 -4.234375 39.394531 -4.109375 38.9375 -3.859375 C 38.476562 -3.617188 37.941406 -3.3125 37.328125 -2.9375 C 36.109375 -2.207031 34.453125 -1.425781 32.359375 -0.59375 C 30.273438 0.226562 27.519531 0.640625 24.09375 0.640625 C 21.332031 0.640625 18.707031 0.242188 16.21875 -0.546875 C 13.738281 -1.347656 11.546875 -2.578125 9.640625 -4.234375 C 7.742188 -5.890625 6.226562 -8.003906 5.09375 -10.578125 C 3.96875 -13.148438 3.40625 -16.210938 3.40625 -19.765625 C 3.40625 -22.035156 3.785156 -24.332031 4.546875 -26.65625 C 5.316406 -28.988281 6.484375 -31.085938 8.046875 -32.953125 C 9.609375 -34.828125 11.613281 -36.347656 14.0625 -37.515625 C 16.519531 -38.679688 19.460938 -39.265625 22.890625 -39.265625 C 25.960938 -39.265625 28.644531 -38.742188 30.9375 -37.703125 C 33.238281 -36.660156 35.140625 -35.21875 36.640625 -33.375 C 38.140625 -31.539062 39.257812 -29.363281 40 -26.84375 C 40.738281 -24.332031 41.109375 -21.578125 41.109375 -18.578125 Z M 22.53125 -36.234375 C 20.382812 -36.234375 18.53125 -35.800781 16.96875 -34.9375 C 15.40625 -34.082031 14.070312 -32.976562 12.96875 -31.625 C 11.863281 -30.28125 11.003906 -28.75 10.390625 -27.03125 C 9.773438 -25.3125 9.375 -23.597656 9.1875 -21.890625 L 35.40625 -21.890625 C 35.34375 -23.660156 35.019531 -25.40625 34.4375 -27.125 C 33.851562 -28.84375 33.039062 -30.375 32 -31.71875 C 30.957031 -33.070312 29.640625 -34.160156 28.046875 -34.984375 C 26.453125 -35.816406 24.613281 -36.234375 22.53125 -36.234375 Z M 22.53125 -36.234375 "/></g></g></g><g fill="#fefeff" fill-opacity="1"><g transform="translate(271.854441, 256.500643)"><g><path d="M 41.109375 -5.984375 C 41.109375 -5.484375 41.164062 -4.941406 41.28125 -4.359375 C 41.40625 -3.785156 41.601562 -3.25 41.875 -2.75 C 42.15625 -2.257812 42.460938 -1.832031 42.796875 -1.46875 C 43.140625 -1.101562 43.554688 -0.921875 44.046875 -0.921875 L 44.046875 0 L 32.1875 0 L 32.1875 -0.921875 C 32.613281 -0.921875 33.007812 -1.101562 33.375 -1.46875 C 33.75 -1.832031 34.070312 -2.257812 34.34375 -2.75 C 34.625 -3.25 34.820312 -3.785156 34.9375 -4.359375 C 35.0625 -4.941406 35.125 -5.484375 35.125 -5.984375 L 35.125 -23.078125 C 35.125 -25.285156 34.816406 -27.21875 34.203125 -28.875 C 33.585938 -30.53125 32.757812 -31.910156 31.71875 -33.015625 C 30.675781 -34.117188 29.492188 -34.929688 28.171875 -35.453125 C 26.859375 -35.972656 25.53125 -36.234375 24.1875 -36.234375 C 22.832031 -36.234375 21.492188 -35.957031 20.171875 -35.40625 C 18.859375 -34.851562 17.695312 -34.128906 16.6875 -33.234375 C 15.675781 -32.347656 14.847656 -31.304688 14.203125 -30.109375 C 13.554688 -28.921875 13.234375 -27.679688 13.234375 -26.390625 L 13.234375 -5.984375 C 13.234375 -5.484375 13.296875 -4.941406 13.421875 -4.359375 C 13.546875 -3.785156 13.742188 -3.25 14.015625 -2.75 C 14.296875 -2.257812 14.601562 -1.832031 14.9375 -1.46875 C 15.28125 -1.101562 15.695312 -0.921875 16.1875 -0.921875 L 16.1875 0 L 4.234375 0 L 4.234375 -0.921875 C 4.660156 -0.921875 5.054688 -1.101562 5.421875 -1.46875 C 5.796875 -1.832031 6.117188 -2.257812 6.390625 -2.75 C 6.660156 -3.25 6.859375 -3.785156 6.984375 -4.359375 C 7.109375 -4.941406 7.171875 -5.484375 7.171875 -5.984375 L 7.171875 -31.359375 C 7.171875 -32.398438 7.015625 -33.394531 6.703125 -34.34375 C 6.398438 -35.289062 5.515625 -35.796875 4.046875 -35.859375 L 4.046875 -36.6875 L 13.234375 -39.625 L 13.234375 -34.578125 C 13.671875 -35.066406 14.222656 -35.601562 14.890625 -36.1875 C 15.566406 -36.769531 16.378906 -37.320312 17.328125 -37.84375 C 18.285156 -38.363281 19.390625 -38.789062 20.640625 -39.125 C 21.898438 -39.457031 23.390625 -39.625 25.109375 -39.625 C 27.984375 -39.625 30.429688 -39.132812 32.453125 -38.15625 C 34.484375 -37.175781 36.140625 -35.90625 37.421875 -34.34375 C 38.710938 -32.78125 39.648438 -31.0625 40.234375 -29.1875 C 40.816406 -27.320312 41.109375 -25.5 41.109375 -23.71875 Z M 41.109375 -5.984375 "/></g></g></g><g fill="#fefeff" fill-opacity="1"><g transform="translate(320.775584, 256.500643)"><g><path d="M 13.15625 -35.5 L 13.15625 -13.328125 C 13.15625 -11.734375 13.179688 -10.289062 13.234375 -9 C 13.296875 -7.71875 13.445312 -6.644531 13.6875 -5.78125 C 13.9375 -4.925781 14.304688 -4.269531 14.796875 -3.8125 C 15.296875 -3.351562 15.972656 -3.125 16.828125 -3.125 C 18.117188 -3.125 19.328125 -3.734375 20.453125 -4.953125 C 21.585938 -6.179688 22.3125 -7.65625 22.625 -9.375 L 23.453125 -9.375 L 23.453125 -2.671875 C 22.898438 -2.671875 22.4375 -2.484375 22.0625 -2.109375 C 21.570312 -1.679688 20.882812 -1.222656 20 -0.734375 C 19.113281 -0.242188 17.78125 0 16 0 C 13.789062 0 12.070312 -0.425781 10.84375 -1.28125 C 9.625 -2.144531 8.738281 -3.28125 8.1875 -4.6875 C 7.632812 -6.09375 7.3125 -7.65625 7.21875 -9.375 C 7.125 -11.09375 7.078125 -12.84375 7.078125 -14.625 L 7.078125 -35.5 L 1.9375 -35.5 L 1.9375 -38.625 L 7.078125 -38.625 L 7.078125 -46.796875 C 7.078125 -47.847656 6.9375 -48.816406 6.65625 -49.703125 C 6.382812 -50.585938 5.484375 -51.0625 3.953125 -51.125 L 3.953125 -52.046875 L 13.15625 -54.984375 L 13.15625 -38.625 L 23.453125 -38.625 L 23.453125 -35.5 Z M 13.15625 -35.5 "/></g></g></g></svg>